<svg t="1660896621727" class="icon" viewBox="0 0 1024 1024" version="1.1" xmlns="http://www.w3.org/2000/svg" p-id="2753" width="200" height="200"><path d="M512.74 57C266.71 57 67.26 256.44 67.26 502.48c0 246.03 199.45 445.48 445.48 445.48s445.48-199.45 445.48-445.48C958.22 256.44 758.77 57 512.74 57z m127.98 693.31c0 10.47-5.4 20.18-14.31 25.7a30.227 30.227 0 0 1-15.9 4.51c-4.6 0-9.21-1.06-13.45-3.16L367.33 662.98c-14.96-7.44-21.04-25.58-13.6-40.51 7.44-14.93 25.67-21.01 40.51-13.6l186.06 92.65V301.66l-196.94 89.9c-3.92 1.77-8.2 2.71-12.54 2.71H270.08v199.84h21.18c16.7 0 30.21 13.51 30.21 30.21s-13.51 30.21-30.21 30.21h-51.4c-16.7 0-30.21-13.51-30.21-30.21V364.06c0-16.7 13.51-30.21 30.21-30.21h124.36l233.74-106.69a30.445 30.445 0 0 1 28.89 2.09 30.216 30.216 0 0 1 13.87 25.4v495.66z m110.99-89.64c-5.96 6.9-14.37 10.44-22.84 10.44-7.02 0-14.04-2.42-19.77-7.38-12.63-10.92-13.99-29.98-3.07-42.6 107.43-124.16 5.52-233.15 1.12-237.72-11.51-12.01-11.21-31.13 0.77-42.69 11.98-11.54 31.01-11.27 42.58 0.59 50.87 52.17 116.58 186.06 1.21 319.36z" p-id="2754"></path></svg>
