<svg t="1697897345808" class="icon" viewBox="0 0 1024 1024" version="1.1" xmlns="http://www.w3.org/2000/svg" p-id="7501" width="200" height="200"><path d="M828.952381 146.285714a73.142857 73.142857 0 0 1 73.142857 73.142857v585.142858a73.142857 73.142857 0 0 1-73.142857 73.142857H195.047619a73.142857 73.142857 0 0 1-73.142857-73.142857V219.428571a73.142857 73.142857 0 0 1 73.142857-73.142857h633.904762z m0 73.142857H195.047619v585.142858h633.904762V219.428571z m-48.761905 414.476191v73.142857H243.809524v-73.142857h536.380952zM463.238095 292.571429a73.142857 73.142857 0 0 1 73.142857 73.142857v121.904762a73.142857 73.142857 0 0 1-73.142857 73.142857h-146.285714a73.142857 73.142857 0 0 1-73.142857-73.142857v-121.904762a73.142857 73.142857 0 0 1 73.142857-73.142857h146.285714z m316.952381 195.047619v73.142857h-195.047619v-73.142857h195.047619z m-316.952381-121.904762h-146.285714v121.904762h146.285714v-121.904762z" p-id="7502"></path></svg>
