<?xml version="1.0" standalone="no"?><!DOCTYPE svg PUBLIC "-//W3C//DTD SVG 1.1//EN" "http://www.w3.org/Graphics/SVG/1.1/DTD/svg11.dtd"><svg height="694" node-id="1" sillyvg="true" template-height="694" template-width="1018" version="1.1" viewBox="0 0 1018 694" width="1018" xmlns="http://www.w3.org/2000/svg" xmlns:xlink="http://www.w3.org/1999/xlink"><defs node-id="102"><mask height="56" id="mask0" maskUnits="userSpaceOnUse" node-id="28" width="40" x="223" y="185"><path d="M 230.91 213.55 C 233.50 208.90 235.17 192.94 235.69 185.54 C 244.53 188.31 261.48 196.62 258.58 207.70 C 255.68 218.78 259.48 222.12 261.74 222.41 C 263.54 228.03 263.73 239.45 250.10 240.22 C 236.47 241.00 226.80 227.96 223.66 221.35 C 225.00 220.68 228.32 218.20 230.91 213.55 Z" fill="#ffffff" fill-rule="nonzero" node-id="105" stroke="none" target-height="55.462006" target-width="40.067017" target-x="223.663" target-y="185.536"></path></mask><mask height="56" id="mask1" maskUnits="userSpaceOnUse" node-id="32" width="40" x="223" y="185"><path d="M 230.88 213.44 C 233.47 208.79 235.15 192.83 235.66 185.43 C 244.50 188.20 261.45 196.51 258.55 207.59 C 255.66 218.67 259.45 222.01 261.71 222.30 C 263.51 227.91 263.70 239.34 250.07 240.12 C 236.45 240.89 226.77 227.85 223.64 221.24 C 224.97 220.57 228.29 218.09 230.88 213.44 Z" fill="#ffffff" fill-rule="nonzero" node-id="109" stroke="none" target-height="55.462006" target-width="40.067" target-x="223.636" target-y="185.426"></path></mask><mask height="54" id="mask2" maskUnits="userSpaceOnUse" node-id="83" width="36" x="840" y="286"><path d="M 868.22 311.97 C 865.20 307.99 861.54 293.37 860.09 286.56 C 852.24 290.30 837.58 300.26 841.74 310.18 C 845.89 320.09 842.80 323.70 840.73 324.26 C 839.80 329.72 841.13 340.36 853.89 339.29 C 866.66 338.21 873.94 324.82 875.98 318.26 C 874.65 317.82 871.24 315.95 868.22 311.97 Z" fill="#ffffff" fill-rule="nonzero" node-id="113" stroke="none" target-height="53.798004" target-width="38.39801" target-x="837.583" target-y="286.564"></path></mask></defs><path d="M 608.66 44.00 L 321.38 209.86 C 289.81 228.09 279.00 268.45 297.22 300.02 L 463.08 587.31 C 481.31 618.87 521.67 629.69 553.24 611.46 L 840.53 445.60 C 872.09 427.38 882.91 387.01 864.68 355.44 L 698.82 68.16 C 680.60 36.59 640.23 25.77 608.66 44.00 Z" fill="#f3f6ff" fill-rule="nonzero" node-id="117" stroke="none" target-height="603.9154" target-width="603.915" target-x="278.995" target-y="25.7746"></path><path d="M 385.78 124.37 C 391.32 98.32 416.38 81.58 441.76 86.97 L 640.55 129.23 L 622.37 214.78 L 377.62 162.76 L 385.78 124.37 Z" fill="#2c2770" fill-rule="nonzero" node-id="119" stroke="none" target-height="133.19951" target-width="262.92902" target-x="377.623" target-y="81.5795"></path><path d="M 680.63 137.75 L 442.30 87.09 C 467.38 92.42 483.28 117.61 477.81 143.36 L 422.91 401.65 C 416.60 431.33 434.93 460.38 463.85 466.53 L 719.82 520.94 C 687.95 514.16 667.75 482.15 674.70 449.44 L 725.75 209.24 C 732.71 176.53 712.50 144.52 680.63 137.75 Z" fill="#1be3b3" fill-rule="nonzero" node-id="121" stroke="none" target-height="433.84912" target-width="316.106" target-x="416.6" target-y="87.0879"></path><path d="M 684.82 225.76 L 524.51 191.69 L 518.45 220.20 L 678.76 254.28 L 684.82 225.76 Z" fill="#ffffff" fill-rule="nonzero" node-id="123" stroke="none" target-height="62.591995" target-width="166.375" target-x="518.447" target-y="191.686"></path><path d="M 587.66 262.43 L 512.85 246.53 L 506.79 275.04 L 581.60 290.94 L 587.66 262.43 Z" fill="#ffffff" fill-rule="nonzero" node-id="125" stroke="none" target-height="44.419006" target-width="80.87399" target-x="506.791" target-y="246.526"></path><path d="M 661.51 335.44 L 501.20 301.37 L 495.13 329.88 L 655.45 363.96 L 661.51 335.44 Z" fill="#ffffff" fill-rule="nonzero" node-id="127" stroke="none" target-height="62.593018" target-width="166.37497" target-x="495.134" target-y="301.365"></path><path d="M 460.11 465.73 L 711.81 519.23 C 736.01 524.38 759.90 508.41 765.18 483.58 L 773.81 443.00 L 532.80 391.77 L 526.51 421.38 C 519.94 452.27 490.22 472.13 460.11 465.73 Z" fill="#2c2770" fill-rule="nonzero" node-id="129" stroke="none" target-height="132.608" target-width="313.695" target-x="460.114" target-y="391.769"></path><path d="M 699.48 324.24 C 656.09 329.56 616.52 297.98 611.09 253.70 C 605.66 209.42 636.43 169.22 679.81 163.90 C 723.20 158.58 762.77 190.16 768.20 234.44 C 773.63 278.71 742.86 318.92 699.48 324.24 Z" fill="#0b86df" fill-rule="nonzero" node-id="131" stroke="none" target-height="170.98601" target-width="167.96503" target-x="605.662" target-y="158.576"></path><path d="M 714.12 297.25 L 692.17 300.13 L 697.96 350.63 L 719.91 347.76 L 714.12 297.25 Z" fill="#2c2770" fill-rule="nonzero" node-id="133" stroke="none" target-height="53.376984" target-width="27.73999" target-x="692.171" target-y="297.255"></path><path d="M 728.69 341.83 C 728.24 337.93 724.79 335.18 720.98 335.67 L 696.37 338.89 C 692.56 339.39 689.83 342.96 690.27 346.86 L 703.97 466.30 C 704.41 470.20 707.87 472.95 711.68 472.45 L 736.29 469.24 C 740.10 468.74 742.83 465.17 742.38 461.27 L 728.69 341.83 Z" fill="#ffe071" fill-rule="nonzero" node-id="135" stroke="none" target-height="137.77399" target-width="52.997986" target-x="689.827" target-y="335.177"></path><path d="M 713.75 322.38 C 670.36 327.69 630.79 296.11 625.36 251.84 C 619.93 207.56 650.70 167.35 694.08 162.03 C 737.47 156.71 777.04 188.29 782.47 232.57 C 787.90 276.85 757.13 317.06 713.75 322.38 Z" fill="#54b7ff" fill-rule="nonzero" node-id="137" stroke="none" target-height="170.98601" target-width="167.96497" target-x="619.931" target-y="156.709"></path><path d="M 711.55 308.99 C 675.14 313.45 641.94 286.95 637.38 249.80 C 632.82 212.64 658.64 178.90 695.05 174.43 C 731.45 169.97 764.66 196.47 769.22 233.63 C 773.77 270.79 747.95 304.53 711.55 308.99 Z" fill="#ffffff" fill-rule="nonzero" node-id="139" stroke="none" target-height="143.486" target-width="140.95099" target-x="632.822" target-y="169.969"></path><path d="M 177.64 553.65 L 178.79 537.40 C 179.41 528.76 194.00 519.52 194.00 519.52 L 184.24 504.74 L 168.87 516.12 L 159.10 519.79 L 175.25 553.64 L 177.64 553.65 Z" fill="#ffae64" fill-rule="nonzero" node-id="141" stroke="none" target-height="48.914" target-width="34.901" target-x="159.097" target-y="504.739"></path><path d="M 164.74 555.52 L 171.78 565.02 C 172.69 566.25 174.19 566.91 175.72 566.74 C 178.03 566.49 179.73 564.46 179.62 562.14 C 179.48 559.34 179.30 555.22 179.19 550.12 C 178.96 540.18 180.04 535.21 180.04 535.21 C 180.04 535.21 174.89 533.08 170.62 527.32 C 166.35 521.56 168.30 515.35 168.30 515.35 C 160.29 517.46 153.34 522.47 148.82 529.40 L 148.33 530.15 L 155.81 541.86 L 158.77 542.64 L 161.08 548.80 C 161.98 551.20 163.22 553.46 164.74 555.52 Z" fill="#2c2770" fill-rule="nonzero" node-id="143" stroke="none" target-height="51.55597" target-width="31.712997" target-x="148.328" target-y="515.353"></path><path d="M 168.42 507.29 L 250.22 417.00 C 266.23 407.79 278.20 405.76 286.14 410.93 C 294.09 416.09 295.03 424.08 288.97 434.89 L 188.68 529.79 L 168.42 507.29 Z" fill="#2c2770" fill-rule="nonzero" node-id="145" stroke="none" target-height="124.020996" target-width="126.60901" target-x="168.419" target-y="405.765"></path><path d="M 117.29 588.22 L 114.24 572.98 C 112.62 564.87 123.69 552.67 123.69 552.67 L 110.97 541.55 L 99.72 555.91 L 91.66 561.77 L 115.09 588.81 L 117.29 588.22 Z" fill="#ffae64" fill-rule="nonzero" node-id="147" stroke="none" target-height="47.263977" target-width="32.0372" target-x="91.6578" target-y="541.547"></path><path d="M 105.90 593.20 L 114.78 600.16 C 115.94 601.06 117.48 601.28 118.85 600.74 C 120.91 599.92 121.96 597.63 121.26 595.52 C 120.42 592.98 119.22 589.24 117.83 584.58 C 115.09 575.49 114.83 570.65 114.83 570.65 C 114.83 570.65 109.55 569.99 104.17 565.77 C 98.78 561.55 99.00 555.35 99.00 555.35 C 92.16 559.32 87.04 565.68 84.63 573.21 L 84.37 574.02 L 94.23 582.90 L 97.15 582.87 L 100.83 587.95 C 102.27 589.92 103.98 591.70 105.90 593.20 Z" fill="#2c2770" fill-rule="nonzero" node-id="149" stroke="none" target-height="45.935974" target-width="37.5858" target-x="84.3742" target-y="555.349"></path><path d="M 123.63 569.07 L 97.50 547.79 L 170.77 451.08 L 169.99 360.72 C 169.92 352.58 171.84 344.55 175.59 337.32 L 190.22 309.05 L 248.86 341.51 L 276.56 387.23 L 289.56 411.71 C 296.97 425.68 285.31 442.13 269.68 439.76 L 220.26 398.84 L 213.78 460.36 C 213.46 463.40 212.22 466.27 210.23 468.58 L 123.63 569.07 Z" fill="#2c2770" fill-rule="nonzero" node-id="151" stroke="none" target-height="260.02" target-width="199.46829" target-x="97.5047" target-y="309.045"></path><path d="M 189.02 328.12 L 178.90 419.99 L 174.78 464.74 L 104.64 553.47" fill="none" node-id="153" stroke="#ffffff" stroke-linecap="butt" stroke-width="1" target-height="225.34799" target-width="84.388" target-x="104.636" target-y="328.121"></path><path d="M 220.78 397.76 L 255.70 420.14 L 212.88 467.16" fill="none" node-id="155" stroke="#ffffff" stroke-linecap="butt" stroke-width="1" target-height="69.395996" target-width="42.821" target-x="212.877" target-y="397.76"></path><path d="M 170.50 431.59 L 138.32 437.69" fill="none" node-id="157" stroke="#ffffff" stroke-linecap="butt" stroke-width="1" target-height="6.1019897" target-width="32.183" target-x="138.319" target-y="431.592"></path><path d="M 358.02 165.24 C 352.24 167.46 349.65 169.35 346.86 177.06 C 346.12 172.26 345.75 162.26 350.21 160.62 C 355.79 158.56 364.71 162.67 358.02 165.24 Z" fill="#d76767" fill-rule="nonzero" node-id="159" stroke="none" target-height="18.499008" target-width="18.96701" target-x="345.745" target-y="158.56"></path><path d="M 332.67 163.14 L 346.22 148.07 L 353.36 132.06 C 353.62 131.48 354.39 131.34 354.83 131.80 C 355.87 132.88 356.31 134.39 356.00 135.85 L 348.97 169.62 L 347.24 178.06 L 332.67 179.37 L 332.67 163.14 Z" fill="#ff9330" fill-rule="nonzero" node-id="161" stroke="none" target-height="48.03099" target-width="23.638" target-x="332.667" target-y="131.343"></path><path d="M 304.63 307.06 L 282.52 309.62 L 275.41 324.12 L 279.20 328.95 L 289.88 333.06 L 301.73 314.07 L 309.92 311.07 C 310.19 310.97 310.43 310.82 310.63 310.63 C 311.99 309.34 311.08 307.06 309.21 307.06 L 304.63 307.06 Z" fill="#ff9330" fill-rule="nonzero" node-id="163" stroke="none" target-height="26" target-width="36.587006" target-x="275.406" target-y="307.059"></path><path d="M 169.38 265.59 L 213.27 216.06 L 244.56 235.17 L 216.45 267.55 L 285.41 307.36 L 274.80 328.06 L 173.82 285.24 C 167.92 282.73 164.90 276.14 166.85 270.04 C 167.38 268.39 168.24 266.88 169.38 265.59 Z" fill="#0b86df" fill-rule="nonzero" node-id="165" stroke="none" target-height="111.999985" target-width="120.505005" target-x="164.901" target-y="216.059"></path><path d="M 227.62 220.57 C 230.23 215.86 231.93 199.70 232.46 192.20 C 241.35 195.00 258.40 203.41 255.48 214.63 C 252.55 225.85 256.37 229.23 258.65 229.51 C 260.45 235.20 260.64 246.77 246.92 247.56 C 233.20 248.35 223.47 235.16 220.32 228.47 C 221.67 227.80 225.01 225.28 227.62 220.57 Z" fill="#ff9330" fill-rule="nonzero" node-id="167" stroke="none" target-height="56.151" target-width="40.31299" target-x="220.324" target-y="192.203"></path><g node-id="306"><path d="M 259.02 217.85 C 239.22 213.14 234.87 195.41 235.18 187.13 L 260.54 205.85 C 268.29 211.81 278.83 222.56 259.02 217.85 Z" fill="#d76767" fill-rule="nonzero" group-id="1" node-id="171" stroke="none" target-height="35.429" target-width="43.957993" target-x="234.873" target-y="187.134"></path></g><g node-id="307"><path d="M 259.00 217.74 C 239.19 213.03 234.85 195.30 235.15 187.02 L 260.51 205.74 C 268.26 211.70 278.80 222.45 259.00 217.74 Z" fill="#d76767" fill-rule="nonzero" group-id="2" node-id="176" stroke="none" target-height="35.429" target-width="43.957016" target-x="234.846" target-y="187.024"></path></g><path d="M 236.70 195.12 C 238.77 201.66 251.02 210.31 265.07 204.26 C 269.37 202.41 270.53 201.39 271.60 196.59 C 272.76 191.37 270.54 184.87 271.07 182.91 C 271.46 181.45 273.73 182.21 274.26 180.08 C 274.91 177.50 269.20 171.46 268.94 169.43 C 268.26 164.18 267.17 160.09 265.24 156.85 L 251.12 157.59 C 253.72 159.25 252.97 158.96 247.26 161.14 C 241.61 163.31 238.16 160.92 235.40 159.98 C 236.93 167.39 225.33 163.46 226.66 166.95 C 227.73 169.74 236.72 187.26 237.54 189.39 C 235.55 190.15 234.11 183.29 232.02 182.91 C 229.67 182.47 225.56 183.11 227.87 189.16 C 230.19 195.21 234.72 195.65 236.70 195.12 Z" fill="#ff9330" fill-rule="nonzero" node-id="179" stroke="none" target-height="53.459" target-width="49.58101" target-x="225.329" target-y="156.847"></path><path d="M 262.01 189.67 C 265.42 190.95 268.05 190.73 270.00 189.67 L 269.47 185.94 L 262.01 189.67 Z" fill="#ffffff" fill-rule="nonzero" node-id="181" stroke="none" target-height="5.007004" target-width="7.9909973" target-x="262.012" target-y="185.939"></path><path d="M 259.03 166.60 L 263.29 164.27 C 264.00 163.88 264.88 164.14 265.27 164.84 C 265.66 165.55 265.40 166.44 264.69 166.82 L 260.43 169.16 C 259.72 169.54 258.84 169.29 258.45 168.58 C 258.06 167.87 258.32 166.99 259.03 166.60 Z" fill="#2c2770" fill-rule="nonzero" node-id="183" stroke="none" target-height="5.6660004" target-width="7.5930176" target-x="258.064" target-y="163.879"></path><path d="M 265.83 171.89 C 265.13 172.28 264.24 172.02 263.85 171.31 C 263.47 170.60 263.73 169.72 264.43 169.33 C 265.14 168.94 266.02 169.20 266.41 169.91 C 266.80 170.62 266.54 171.50 265.83 171.89 Z" fill="#000000" fill-rule="nonzero" node-id="185" stroke="none" target-height="3.3309937" target-width="3.3309937" target-x="263.467" target-y="168.944"></path><path d="M 244.79 183.18 C 244.79 183.18 239.64 174.75 236.44 179.55 C 232.70 185.15 240.17 188.07 240.17 188.07 C 239.10 194.46 235.56 196.44 233.78 195.53 C 210.87 183.81 213.51 153.47 229.41 151.56 C 246.81 149.47 238.44 134.06 252.41 134.06 C 265.96 134.94 269.78 153.84 264.93 156.65 C 250.47 165.05 248.24 160.95 246.82 163.20 C 245.41 165.46 245.91 174.19 246.82 179.55 C 247.16 181.54 247.02 182.65 246.65 183.18 C 246.21 183.78 245.47 183.63 244.79 183.18 Z" fill="#2c2770" fill-rule="nonzero" node-id="187" stroke="none" target-height="62.380997" target-width="58.905014" target-x="210.872" target-y="134.058"></path><path d="M 203.76 227.42 C 190.57 276.61 171.59 334.79 170.41 337.96 C 191.67 337.96 190.07 357.62 219.84 361.35 C 243.65 364.32 254.21 357.27 256.51 353.37 L 269.80 255.59 L 296.68 248.79 C 307.63 246.02 316.84 238.64 321.93 228.56 L 347.41 178.11 L 332.52 162.06 L 297.97 209.36 L 232.58 209.36 C 230.48 209.36 228.39 209.69 226.39 210.34 L 217.00 213.40 C 210.49 215.51 205.53 220.81 203.76 227.42 Z" fill="#6b8cff" fill-rule="nonzero" node-id="189" stroke="none" target-height="202.26201" target-width="177" target-x="170.406" target-y="162.059"></path><path d="M 208.23 265.06 C 227.57 264.62 245.67 241.33 241.91 210.06 C 228.66 210.06 203.61 213.29 198.02 213.29 C 191.03 213.29 184.05 265.59 208.23 265.06 Z" fill="#0b86df" fill-rule="nonzero" node-id="191" stroke="none" target-height="55.53499" target-width="61.617004" target-x="184.051" target-y="210.059"></path><path d="M 206.12 261.06 C 225.33 260.63 238.31 226.88 242.41 210.06 L 195.98 210.06 C 189.04 210.06 182.10 261.59 206.12 261.06 Z" fill="#6b8cff" fill-rule="nonzero" node-id="193" stroke="none" target-height="51.526993" target-width="60.30699" target-x="182.1" target-y="210.059"></path><path d="M 339.91 171.06 L 310.91 229.06 L 262.91 245.56 L 242.41 358.56" fill="none" node-id="195" stroke="#ffffff" stroke-linecap="butt" stroke-width="1" target-height="187.49998" target-width="97.5" target-x="242.406" target-y="171.059"></path><path d="M 277.02 359.12 L 323.41 356.54 L 365.50 289.48 L 313.64 293.52 L 275.85 355.57 L 277.02 359.12 Z" fill="#dae2ff" fill-rule="nonzero" node-id="197" stroke="none" target-height="69.632996" target-width="89.64899" target-x="275.854" target-y="289.482"></path><path d="M 275.85 355.57 L 322.61 353.05 L 366.21 286.14 L 314.34 290.18 L 275.85 355.57 Z" fill="#6b8cff" fill-rule="nonzero" node-id="199" stroke="none" target-height="69.42999" target-width="90.35199" target-x="275.854" target-y="286.144"></path><path d="M 331.66 233.86 L 286.17 302.25 L 314.68 356.82 L 321.91 356.39 L 365.04 291.40 L 338.41 233.86 L 331.66 233.86 Z" fill="#dae2ff" fill-rule="nonzero" node-id="201" stroke="none" target-height="122.961" target-width="78.86899" target-x="286.172" target-y="233.863"></path><path d="M 334.16 236.33 L 292.15 299.52 C 291.14 301.05 291.04 303.00 291.89 304.62 L 317.98 354.32 C 319.74 357.67 324.44 357.93 326.56 354.78 L 367.77 293.54 C 368.76 292.06 368.89 290.15 368.11 288.55 L 342.82 236.90 C 341.12 233.43 336.30 233.11 334.16 236.33 Z" fill="#1be3b3" fill-rule="nonzero" node-id="203" stroke="none" target-height="124.81099" target-width="77.85602" target-x="291.038" target-y="233.114"></path><path d="M 338.16 295.26 C 338.49 291.03 335.68 287.36 331.88 287.05 C 328.07 286.75 324.72 289.93 324.38 294.15 C 324.04 298.38 326.85 302.06 330.65 302.36 C 334.46 302.66 337.82 299.48 338.16 295.26 Z" fill="#dae2ff" fill-rule="nonzero" node-id="205" stroke="none" target-height="15.919006" target-width="14.455994" target-x="324.038" target-y="286.745"></path><path d="M 652.45 583.00 L 627.88 597.19 C 623.10 599.95 621.46 606.06 624.22 610.85 L 638.41 635.42 C 641.17 640.20 647.28 641.84 652.07 639.08 L 676.64 624.89 C 681.42 622.13 683.06 616.02 680.30 611.23 L 666.11 586.66 C 663.35 581.88 657.24 580.24 652.45 583.00 Z" fill="#f3f6ff" fill-rule="nonzero" node-id="207" stroke="none" target-height="61.60199" target-width="61.60199" target-x="621.459" target-y="580.239"></path><path d="M 486.30 620.54 C 490.77 636.76 507.54 646.30 523.76 641.83 C 539.99 637.37 549.52 620.60 545.05 604.37 C 540.59 588.15 523.82 578.62 507.59 583.08 C 491.37 587.55 481.84 604.32 486.30 620.54 Z" fill="#ffe071" fill-rule="nonzero" node-id="209" stroke="none" target-height="67.677" target-width="67.67703" target-x="481.84" target-y="578.619"></path><path d="M 890.22 1.00 L 734.22 1.00 C 730.35 1.00 727.22 4.13 727.22 8.00 L 727.22 111.00 C 727.22 114.87 730.35 118.00 734.22 118.00 L 890.22 118.00 C 894.09 118.00 897.22 114.87 897.22 111.00 L 897.22 8.00 C 897.22 4.13 894.09 1.00 890.22 1.00 Z" fill="#ffffff" fill-rule="nonzero" node-id="211" stroke="#e5e5e5" stroke-linecap="butt" stroke-width="2" target-height="117" target-width="170" target-x="727.22" target-y="1"></path><path d="M 754.72 42.00 C 759.41 42.00 763.22 38.19 763.22 33.50 C 763.22 28.81 759.41 25.00 754.72 25.00 C 750.03 25.00 746.22 28.81 746.22 33.50 C 746.22 38.19 750.03 42.00 754.72 42.00 Z" fill="#a3b7ff" fill-rule="nonzero" node-id="213" stroke="none" target-height="17" target-width="17" target-x="746.22" target-y="25"></path><path d="M 764.22 80.00 L 747.22 80.00 L 747.22 104.00 L 764.22 104.00 L 764.22 80.00 Z" fill="#5fffd8" fill-rule="nonzero" node-id="215" stroke="none" target-height="24" target-width="17" target-x="747.22" target-y="80"></path><path d="M 764.22 63.00 L 747.22 63.00 L 747.22 87.00 L 764.22 87.00 L 764.22 63.00 Z" fill="#1be3b3" fill-rule="nonzero" node-id="217" stroke="none" target-height="24" target-width="17" target-x="747.22" target-y="63"></path><path d="M 793.22 83.00 L 776.22 83.00 L 776.22 105.00 L 793.22 105.00 L 793.22 83.00 Z" fill="#5fffd8" fill-rule="nonzero" node-id="219" stroke="none" target-height="22" target-width="17" target-x="776.22" target-y="83"></path><path d="M 793.22 73.00 L 776.22 73.00 L 776.22 93.00 L 793.22 93.00 L 793.22 73.00 Z" fill="#1be3b3" fill-rule="nonzero" node-id="221" stroke="none" target-height="20" target-width="17" target-x="776.22" target-y="73"></path><path d="M 822.22 69.00 L 805.22 69.00 L 805.22 105.00 L 822.22 105.00 L 822.22 69.00 Z" fill="#5fffd8" fill-rule="nonzero" node-id="223" stroke="none" target-height="36" target-width="17" target-x="805.22" target-y="69"></path><path d="M 822.22 56.00 L 805.22 56.00 L 805.22 80.00 L 822.22 80.00 L 822.22 56.00 Z" fill="#1be3b3" fill-rule="nonzero" node-id="225" stroke="none" target-height="24" target-width="17" target-x="805.22" target-y="56"></path><path d="M 851.22 69.00 L 834.22 69.00 L 834.22 105.00 L 851.22 105.00 L 851.22 69.00 Z" fill="#5fffd8" fill-rule="nonzero" node-id="227" stroke="none" target-height="36" target-width="17" target-x="834.22" target-y="69"></path><path d="M 851.22 38.00 L 834.22 38.00 L 834.22 74.00 L 851.22 74.00 L 851.22 38.00 Z" fill="#1be3b3" fill-rule="nonzero" node-id="229" stroke="none" target-height="36" target-width="17" target-x="834.22" target-y="38"></path><path d="M 880.22 69.00 L 863.22 69.00 L 863.22 105.00 L 880.22 105.00 L 880.22 69.00 Z" fill="#5fffd8" fill-rule="nonzero" node-id="231" stroke="none" target-height="36" target-width="17" target-x="863.22" target-y="69"></path><path d="M 880.22 49.00 L 863.22 49.00 L 863.22 85.00 L 880.22 85.00 L 880.22 49.00 Z" fill="#1be3b3" fill-rule="nonzero" node-id="233" stroke="none" target-height="36" target-width="17" target-x="863.22" target-y="49"></path><path d="M 510.22 522.00 L 360.22 522.00 C 356.35 522.00 353.22 525.13 353.22 529.00 L 353.22 604.00 C 353.22 607.87 356.35 611.00 360.22 611.00 L 510.22 611.00 C 514.09 611.00 517.22 607.87 517.22 604.00 L 517.22 529.00 C 517.22 525.13 514.09 522.00 510.22 522.00 Z" fill="#ffffff" fill-rule="nonzero" node-id="235" stroke="#e5e5e5" stroke-linecap="butt" stroke-width="2" target-height="89" target-width="163.99997" target-x="353.22" target-y="522"></path><path d="M 400.22 562.00 L 426.22 562.00 C 425.27 547.54 414.15 535.99 400.22 535.00 L 400.22 562.00 Z" fill="#1be3b3" fill-rule="nonzero" node-id="237" stroke="none" target-height="27" target-width="26" target-x="400.22" target-y="535"></path><path d="M 423.69 586.00 C 427.98 581.46 430.76 575.54 431.22 569.00 L 406.22 569.00 L 423.69 586.00 Z" fill="#ffae64" fill-rule="nonzero" node-id="239" stroke="none" target-height="17" target-width="25" target-x="406.22" target-y="569"></path><path d="M 395.99 565.97 L 395.99 535.00 C 381.04 536.03 369.22 548.60 369.22 563.96 C 369.22 580.00 382.09 593.00 397.98 593.00 C 404.91 593.00 411.26 590.52 416.22 586.39 L 395.99 565.97 Z" fill="#ff8282" fill-rule="nonzero" node-id="241" stroke="none" target-height="58" target-width="47" target-x="369.22" target-y="535"></path><path d="M 489.22 574.00 L 445.22 574.00 L 445.22 582.00 L 489.22 582.00 L 489.22 574.00 Z" fill="#a3b7ff" fill-rule="nonzero" node-id="243" stroke="none" target-height="8" target-width="44" target-x="445.22" target-y="574"></path><path d="M 477.22 560.00 L 444.22 560.00 L 444.22 568.00 L 477.22 568.00 L 477.22 560.00 Z" fill="#a3b7ff" fill-rule="nonzero" node-id="245" stroke="none" target-height="8" target-width="33" target-x="444.22" target-y="560"></path><path d="M 507.22 545.00 L 445.22 545.00 L 445.22 553.00 L 507.22 553.00 L 507.22 545.00 Z" fill="#a3b7ff" fill-rule="nonzero" node-id="247" stroke="none" target-height="8" target-width="62" target-x="445.22" target-y="545"></path><path d="M 980.15 565.36 L 967.58 555.01 C 960.88 549.50 944.14 553.72 944.14 553.72 L 940.14 536.46 L 958.98 533.16 L 968.37 528.60 L 981.79 563.62 L 980.15 565.36 Z" fill="#ffae64" fill-rule="nonzero" node-id="249" stroke="none" target-height="36.763" target-width="41.64502" target-x="940.143" target-y="528.6"></path><path d="M 990.39 557.30 L 992.43 568.94 C 992.69 570.46 992.13 572.00 990.96 572.99 C 989.18 574.49 986.54 574.33 984.94 572.64 C 983.00 570.61 980.14 567.65 976.53 564.06 C 969.47 557.04 965.13 554.40 965.13 554.40 C 965.13 554.40 967.13 549.20 965.89 542.14 C 964.65 535.08 958.81 532.22 958.81 532.22 C 965.86 527.86 974.27 526.27 982.42 527.76 L 983.30 527.93 L 986.63 541.42 L 985.16 544.10 L 988.03 550.02 C 989.15 552.32 989.95 554.77 990.39 557.30 Z" fill="#2c2770" fill-rule="nonzero" node-id="251" stroke="none" target-height="48.21698" target-width="33.87799" target-x="958.814" target-y="526.271"></path><path d="M 985.35 681.08 L 987.47 665.68 C 988.60 657.49 976.80 645.99 976.80 645.99 L 988.83 634.11 L 1000.93 647.77 L 1009.33 653.12 L 987.58 681.54 L 985.35 681.08 Z" fill="#ffae64" fill-rule="nonzero" node-id="253" stroke="none" target-height="47.426025" target-width="32.526" target-x="976.804" target-y="634.112"></path><path d="M 997.01 685.37 L 988.57 692.85 C 987.48 693.82 985.94 694.13 984.55 693.68 C 982.44 692.98 981.25 690.75 981.82 688.61 C 982.51 686.02 983.48 682.21 984.59 677.48 C 986.77 668.24 986.74 663.39 986.74 663.39 C 986.74 663.39 991.97 662.41 997.09 657.88 C 1002.21 653.34 1001.61 647.16 1001.61 647.16 C 1008.68 650.71 1014.17 656.76 1017.04 664.12 L 1017.34 664.92 L 1008.05 674.37 L 1005.13 674.52 L 1001.76 679.81 C 1000.44 681.88 998.85 683.75 997.01 685.37 Z" fill="#2c2770" fill-rule="nonzero" node-id="255" stroke="none" target-height="46.968994" target-width="36.085022" target-x="981.255" target-y="647.165"></path><path d="M 977.86 662.34 L 1002.65 639.53 L 923.67 547.43 L 918.98 457.19 C 918.56 449.06 916.15 441.15 911.98 434.16 L 895.67 406.83 L 839.10 442.78 L 814.21 490.09 L 802.72 515.32 C 796.16 529.71 808.80 545.42 824.26 542.11 L 871.11 498.27 L 881.30 559.29 C 881.80 562.31 883.21 565.10 885.34 567.29 L 977.86 662.34 Z" fill="#2c2770" fill-rule="nonzero" node-id="257" stroke="none" target-height="255.51599" target-width="206.48804" target-x="796.162" target-y="406.828"></path><path d="M 955.95 524.33 L 841.31 511.01 L 816.53 542.64 L 960.58 560.66 L 955.95 524.33 Z" fill="#2c2770" fill-rule="nonzero" node-id="259" stroke="none" target-height="49.647034" target-width="144.04901" target-x="816.528" target-y="511.011"></path><path d="M 909.72 470.50 L 914.22 552.00 L 995.22 645.50" fill="none" node-id="261" stroke="#ffffff" stroke-linecap="butt" stroke-width="1" target-height="175" target-width="85.5" target-x="909.72" target-y="470.5"></path><path d="M 869.72 490.00 L 842.72 517.50 L 876.22 522.00" fill="none" node-id="263" stroke="#ffffff" stroke-linecap="butt" stroke-width="1" target-height="32" target-width="33.5" target-x="842.72" target-y="490"></path><path d="M 955.72 532.00 L 922.22 528.00" fill="none" node-id="265" stroke="#ffffff" stroke-linecap="butt" stroke-width="1" target-height="4" target-width="33.5" target-x="922.22" target-y="528"></path><path d="M 890.83 317.64 L 869.48 317.13 L 825.13 327.65 C 813.90 330.31 802.20 330.16 791.05 327.21 L 786.92 326.11 L 784.23 361.64 L 818.30 375.01 L 826.27 390.67 L 827.82 434.80 C 828.21 445.69 838.58 453.41 849.12 450.65 L 908.70 435.06 C 912.71 434.01 915.26 430.07 914.56 425.98 L 905.41 372.37 L 915.75 384.34 L 940.12 372.71 L 922.04 337.27 C 916.03 325.49 904.04 317.95 890.83 317.64 Z" fill="#ffe071" fill-rule="nonzero" node-id="267" stroke="none" target-height="136.27802" target-width="155.88605" target-x="784.233" target-y="317.132"></path><path d="M 868.29 312.72 C 865.38 308.59 862.16 293.68 860.92 286.74 C 852.90 290.25 837.83 299.81 841.69 309.98 C 845.55 320.16 842.33 323.70 840.24 324.19 C 839.12 329.68 840.12 340.50 853.00 339.86 C 865.88 339.21 873.63 325.92 875.89 319.35 C 874.57 318.86 871.20 316.85 868.29 312.72 Z" fill="#ff9330" fill-rule="nonzero" node-id="269" stroke="none" target-height="53.760986" target-width="38.064026" target-x="837.831" target-y="286.737"></path><path d="M 880.33 298.80 C 878.79 306.97 870.00 307.41 862.50 302.86 L 851.25 297.86 C 847.40 296.14 840.58 287.26 837.66 283.03 C 834.43 279.47 831.86 280.70 829.54 271.26 C 827.22 261.82 833.41 251.03 842.45 248.02 C 851.49 245.00 852.78 251.03 866.12 249.31 C 876.37 247.99 882.48 252.32 882.48 263.08 C 882.48 270.60 892.96 271.39 890.23 283.03 C 888.50 290.34 881.62 291.92 880.33 298.80 Z" fill="#2c2770" fill-rule="nonzero" node-id="271" stroke="none" target-height="62.405" target-width="65.74103" target-x="827.222" target-y="245.004"></path><path d="M 849.66 319.97 C 862.35 308.97 858.77 294.34 855.39 288.40 L 843.98 311.76 C 840.58 319.08 836.97 330.97 849.66 319.97 Z" fill="#d76767" fill-rule="nonzero" group-id="3" node-id="275" stroke="none" target-height="42.567017" target-width="25.382996" target-x="836.969" target-y="288.404"></path><path d="M 864.59 304.72 C 862.33 310.75 850.41 318.25 837.55 311.88 C 830.03 308.17 831.99 298.56 834.33 288.06 C 836.00 280.57 836.62 272.09 839.74 267.44 L 852.93 268.83 C 850.41 270.26 845.84 272.07 851.08 274.40 C 856.27 276.71 861.93 277.31 864.56 276.56 C 862.76 283.43 867.71 285.00 866.29 288.20 L 862.25 297.28 C 866.25 299.57 868.81 295.72 869.58 293.50 C 871.80 293.21 875.63 294.02 873.16 299.57 C 870.69 305.13 866.42 305.32 864.59 304.72 Z" fill="#ff9330" fill-rule="nonzero" node-id="278" stroke="none" target-height="50.811005" target-width="45.59601" target-x="830.035" target-y="267.436"></path><path d="M 847.43 300.28 L 840.30 300.61 C 840.34 301.62 841.20 303.30 843.49 303.52 C 845.79 303.75 846.95 301.73 847.43 300.28 Z" fill="#ffffff" fill-rule="nonzero" node-id="280" stroke="none" target-height="3.4639893" target-width="7.1329956" target-x="840.297" target-y="300.282"></path><path d="M 842.71 277.22 L 838.54 275.36 C 837.85 275.06 837.04 275.37 836.74 276.06 C 836.43 276.75 836.74 277.56 837.43 277.86 L 841.60 279.72 C 842.29 280.02 843.10 279.71 843.41 279.02 C 843.71 278.33 843.40 277.52 842.71 277.22 Z" fill="#2c2770" fill-rule="nonzero" node-id="282" stroke="none" target-height="4.968994" target-width="7.282959" target-x="836.431" target-y="275.055"></path><path d="M 859.38 284.63 L 855.22 282.78 C 854.52 282.47 853.72 282.78 853.41 283.47 C 853.10 284.16 853.41 284.97 854.10 285.28 L 858.27 287.13 C 858.96 287.44 859.77 287.13 860.08 286.44 C 860.38 285.75 860.07 284.94 859.38 284.63 Z" fill="#2c2770" fill-rule="nonzero" node-id="284" stroke="none" target-height="4.968994" target-width="7.28302" target-x="853.102" target-y="282.47"></path><path d="M 853.92 290.19 C 854.61 290.50 855.42 290.18 855.72 289.49 C 856.03 288.80 855.72 287.99 855.03 287.69 C 854.34 287.38 853.53 287.69 853.22 288.38 C 852.92 289.07 853.23 289.88 853.92 290.19 Z" fill="#000000" fill-rule="nonzero" node-id="286" stroke="none" target-height="3.1149902" target-width="3.1149902" target-x="852.916" target-y="287.38"></path><path d="M 846.55 280.92 L 839.88 295.93 L 843.63 297.60" fill="none" node-id="288" stroke="#000000" stroke-linecap="butt" stroke-width="1" target-height="16.673004" target-width="6.6729736" target-x="839.882" target-y="280.922"></path><path d="M 838.08 283.14 C 838.77 283.45 839.58 283.14 839.89 282.45 C 840.19 281.76 839.88 280.95 839.19 280.64 C 838.50 280.34 837.69 280.65 837.38 281.34 C 837.08 282.03 837.39 282.84 838.08 283.14 Z" fill="#000000" fill-rule="nonzero" node-id="290" stroke="none" target-height="3.1149902" target-width="3.1149902" target-x="837.078" target-y="280.336"></path><path d="M 915.13 384.93 L 940.65 372.55 L 921.57 336.50 C 915.26 324.59 902.98 317.06 889.51 316.82 L 875.82 316.58 L 859.88 337.71 C 857.14 340.26 851.91 349.05 852.97 363.81 C 854.29 382.26 865.44 461.25 879.47 472.72 C 889.30 480.76 917.21 467.27 938.02 460.68 C 941.28 459.65 942.22 455.14 939.69 452.84 C 912.05 427.73 908.65 394.14 906.19 373.77 L 915.13 384.93 Z" fill="#0b86df" fill-rule="nonzero" node-id="292" stroke="none" target-height="164.17798" target-width="90.30701" target-x="851.912" target-y="316.584"></path><path d="M 734.43 264.39 L 732.61 235.50 C 732.39 232.06 732.52 230.95 730.15 228.44 L 725.36 223.38 C 724.73 222.72 723.62 222.95 723.31 223.81 C 722.37 226.40 722.76 229.29 724.36 231.54 L 726.04 235.50 L 725.36 242.70 L 721.90 236.22 C 720.77 234.10 716.96 230.35 714.75 229.38 L 711.25 227.83 C 710.07 227.31 708.87 228.50 709.37 229.69 L 709.92 230.99 C 710.33 231.95 710.99 232.78 711.83 233.41 C 714.25 235.20 718.01 239.80 718.85 242.70 L 720.37 247.96 L 717.13 244.56 C 715.25 242.58 709.61 237.61 707.12 236.49 L 706.54 236.22 C 705.65 235.82 704.66 236.56 704.80 237.53 L 704.86 237.93 C 705.02 239.04 705.58 240.06 706.42 240.80 C 707.32 241.59 714.75 246.88 715.54 252.88 L 707.02 248.20 C 706.27 247.79 705.34 248.20 705.13 249.03 C 704.78 250.44 705.35 251.92 706.54 252.76 C 709.58 254.93 714.99 259.07 714.75 261.00 C 714.13 265.94 715.50 269.88 720.37 272.38 L 747.65 325.31 C 755.27 340.11 768.37 351.35 784.14 356.66 L 791.24 359.04 L 793.22 330.08 L 780.68 324.69 L 734.43 264.39 Z" fill="#ff9330" fill-rule="nonzero" node-id="294" stroke="none" target-height="136.31999" target-width="88.560974" target-x="704.659" target-y="222.722"></path><path d="M 717.57 241.99 L 727.83 246.43 L 733.48 263.98 L 725.11 264.62 C 722.43 264.22 717.05 266.15 716.74 263.37 C 716.35 259.89 728.78 252.98 721.05 250.11 C 717.57 248.82 715.60 246.61 714.55 244.50 C 713.61 242.60 715.62 241.15 717.57 241.99 Z" fill="#ff9330" fill-rule="nonzero" node-id="296" stroke="none" target-height="24.992996" target-width="19.876038" target-x="713.605" target-y="241.153"></path><path d="M 732.54 261.88 L 729.28 249.93 C 728.50 247.08 726.38 244.81 723.60 243.84 L 717.02 241.55 C 716.73 241.45 716.40 241.52 716.18 241.74 C 714.85 243.08 715.13 245.32 716.76 246.28 L 722.04 249.38 C 721.21 252.72 720.04 260.28 722.04 263.88" fill="none" node-id="298" stroke="#000000" stroke-linecap="butt" stroke-width="1" target-height="22.434998" target-width="17.695007" target-x="714.845" target-y="241.449"></path><path d="M 826.76 392.65 C 825.27 367.01 834.05 336.48 838.75 323.93 C 813.29 332.19 794.82 329.02 786.10 325.50 L 783.29 361.48 L 817.68 374.21 C 814.21 397.08 811.96 419.25 820.65 456.72 C 823.25 467.92 827.12 471.36 840.68 472.89 C 854.24 474.41 828.62 424.69 826.76 392.65 Z" fill="#0b86df" fill-rule="nonzero" node-id="300" stroke="none" target-height="150.48102" target-width="70.95203" target-x="783.29" target-y="323.929"></path><path d="M 870.42 407.66 L 842.27 366.44 C 841.68 365.57 840.51 365.31 839.61 365.84 L 809.19 383.67 C 808.17 384.26 807.89 385.60 808.58 386.56 L 837.72 427.20 C 838.32 428.04 839.46 428.28 840.35 427.76 L 869.78 410.51 C 870.78 409.93 871.07 408.62 870.42 407.66 Z" fill="#2c2770" fill-rule="nonzero" node-id="302" stroke="none" target-height="62.97" target-width="63.184998" target-x="807.889" target-y="365.31"></path><path d="M 875.09 386.84 L 915.82 384.07 L 940.33 371.92 L 947.67 392.04 C 950.93 400.96 943.83 410.25 934.36 409.45 L 875.41 404.44 L 868.66 406.60 C 868.46 406.67 868.25 406.71 868.05 406.75 L 859.10 408.12 C 859.03 408.13 858.95 408.15 858.88 408.18 L 846.39 412.28 C 845.36 412.62 844.23 412.12 843.79 411.13 C 843.31 410.06 843.79 408.80 844.86 408.32 L 854.37 404.09 L 842.26 406.75 C 841.37 406.94 840.47 406.41 840.21 405.52 C 839.95 404.64 840.42 403.72 841.27 403.39 L 852.23 399.29 L 839.16 400.45 C 838.13 400.55 837.18 399.84 836.99 398.82 C 836.78 397.77 837.43 396.74 838.46 396.46 L 851.91 392.89 L 837.92 393.86 C 836.56 393.95 835.43 392.81 835.55 391.45 C 835.63 390.46 836.36 389.65 837.33 389.45 L 855.11 385.93 L 850.93 380.02 L 862.70 380.48 C 864.06 380.53 865.38 380.93 866.54 381.64 L 875.09 386.84 Z" fill="#ff9330" fill-rule="nonzero" node-id="304" stroke="none" target-height="40.697998" target-width="115.50098" target-x="835.432" target-y="371.921"></path></svg>